<?xml version="1.0" encoding="UTF-8" standalone="no"?>
<svg xmlns:dc="http://purl.org/dc/elements/1.1/"
   xmlns:cc="http://creativecommons.org/ns#"
   xmlns:rdf="http://www.w3.org/1999/02/22-rdf-syntax-ns#"
   xmlns:svg="http://www.w3.org/2000/svg"
   xmlns="http://www.w3.org/2000/svg" height="128" width="128" viewBox="0 0 2560 2560" version="1.1">
   <circle stroke-width="106.8" stroke="currentColor" fill="none" cx="1280" cy="1280" r="1173.2" />
   <g transform="matrix(0.2669568,0,0,0.2669568,1467.9818,660.09407)">
      <polygon transform="rotate(-120,676.6752,2682.8368)" fill="currentColor" points="2000,2000 2000,0 0,0" />
      <polygon transform="rotate(-120,609.25447,1985.0771)" fill="currentColor" points="2000,2000 0,2000 0,0" />
      <polygon transform="rotate(60,433.01269,749.99998)" fill="currentColor" points="1000,0 1000,1000 0,1000 0,0" />
      <polygon transform="rotate(60,1472.2379,1349.9909)" fill="currentColor" points="1000,1000 0,1000 0,0" />
      <polygon transform="rotate(-120,1244.3345,885.08004)" fill="currentColor" points="1000,1000 1000,0 0,0" />
      <polygon transform="rotate(60,-1806.1945,2228.4592)" fill="currentColor" points="0,1414.2 0,0 1414.2,1414.2" />
      <polygon transform="rotate(105,-2383.4337,537.01294)" fill="currentColor" points="1414.2,0 2121.32,707.1 707.1,707.1 0,0" />
   </g>
</svg>
