<?xml version="1.0" encoding="UTF-8" standalone="no"?>
<svg xmlns:dc="http://purl.org/dc/elements/1.1/" xmlns:cc="http://creativecommons.org/ns#" xmlns:rdf="http://www.w3.org/1999/02/22-rdf-syntax-ns#" xmlns:svg="http://www.w3.org/2000/svg" xmlns="http://www.w3.org/2000/svg" height="128" width="128" viewBox="0 0 128 128">
  <circle r="64" cy="64" cx="64" fill="#e2e9ee" />
  <circle r="59.584" cy="64" cx="64" fill="none" stroke="#043962" stroke-width="4.832" />
  <g transform="matrix(0.07280866,0,0,0.07280866,103.26811,62.630277)">
    <path d="M 280,-90 H -280 L 0,190 Z" transform="matrix(-0.25881904,0.96592583,0.96592583,0.25881904,-440.59734,-27.205741)" fill="#5a6378" />
    <path d="M -198,-66 0,132 198,-66 Z" transform="matrix(0.25881904,-0.96592583,-0.96592583,-0.25881904,-358.32896,219.93907)" fill="#60b5cc" />
    <path d="M 130,0 0,130 -130,0 0,-130 Z" transform="matrix(0.25881905,-0.96592582,-0.96592582,-0.25881905,-305.29065,-300.35495)" fill="#7fd13b" />
    <path d="M 191,-61 H -69 L -191,61 H 69 Z" transform="matrix(-0.25881904,0.96592583,0.96592583,0.25881904,-1014.4104,267.7895)" fill="#7fd13b" />
    <path d="M 0,86 130,-44 h -260 z" transform="rotate(105,77.755357,-271.92208)" fill="#f0ad00" />
    <path d="M 0,86 130,-44 h -260 z" transform="matrix(0.25881904,-0.96592583,-0.96592583,-0.25881904,-242.12778,-128.72825)" fill="#f0ad00" />
    <path d="M 280,-90 H -280 L 0,190 Z" transform="matrix(0.25881904,-0.96592583,-0.96592583,-0.25881904,-698.73062,134.5215)" fill="#60b5cc" />
  </g>
</svg>
