<?xml version="1.0" encoding="UTF-8" standalone="no"?>
<svg xmlns:dc="http://purl.org/dc/elements/1.1/" xmlns:cc="http://creativecommons.org/ns#" xmlns:rdf="http://www.w3.org/1999/02/22-rdf-syntax-ns#" xmlns:svg="http://www.w3.org/2000/svg" xmlns="http://www.w3.org/2000/svg" viewBox="0 0 96 96" style="color:#ffffff" width="96" height="96">
  <g transform="matrix(-0.11707891,0,0,0.11707891,25.736012,70.247346)">
    <polygon points="0,190 280,-90 -280,-90 " transform="rotate(-135,-177.81532,49.243968)" />
    <polygon points="0,190 280,-90 -280,-90 " transform="rotate(-45,-577.63456,239.26407)" />
    <polygon points="198,-66 -198,-66 0,132 " transform="matrix(0,-1,-1,0,153.67552,-335.69419)" />
    <polygon points="130,0 0,130 -130,0 0,-130 " transform="matrix(0.70710678,-0.70710678,-0.70710678,-0.70710678,-84.096121,-190.02008)" />
    <polygon points="-191,61 69,61 191,-61 -69,-61 " transform="matrix(-0.70710678,-0.70710678,-0.70710678,0.70710678,127.75164,-103.75306)" />
    <polygon points="-130,-44 0,86 130,-44 " transform="rotate(135,-55.681468,-28.502918)" />
    <polygon points="130,-44 -130,-44 0,86 " transform="matrix(-0.70710678,-0.70710678,-0.70710678,0.70710678,-115.20882,-370.75538)" />
  </g>
</svg>
