<?xml version="1.0" encoding="UTF-8" standalone="no"?>
<svg xmlns:dc="http://purl.org/dc/elements/1.1/"
   xmlns:cc="http://creativecommons.org/ns#"
   xmlns:rdf="http://www.w3.org/1999/02/22-rdf-syntax-ns#"
   xmlns:svg="http://www.w3.org/2000/svg"
   xmlns="http://www.w3.org/2000/svg" height="128" width="128" viewBox="0 0 2560 2560" version="1.1">
   <circle r="1173.2" cy="1280" cx="1280" fill="none" stroke="currentColor" stroke-width="106.8" />
   <g transform="matrix(0.34090909,0,0,0.34090909,1401.5818,564.09091)">
      <polygon transform="rotate(-90,2100,2100)" fill="currentColor" points="2000,2000 2000,0 0,0 " />
      <polygon fill="currentColor" points="0,0 2000,2000 0,2000 " />
      <polygon transform="translate(-1200,1600)" fill="currentColor" points="0,1000 0,0 1000,0 1000,1000 " />
      <polygon transform="rotate(-90,100,1300)" fill="currentColor" points="0,0 1000,1000 0,1000 " />
      <polygon transform="translate(-1200,2800)" fill="currentColor" points="0,0 1000,1000 1000,0 " />
      <polygon transform="rotate(-135,-690.80123,1726.3425)" fill="currentColor" points="0,1414.2 0,0 1414.2,1414.2 " />
      <polygon transform="matrix(0.70710678,-0.70710678,-0.70710678,-0.70710678,-2400,3741.395)" fill="currentColor" points="707.1,707.1 0,0 1414.2,0 2121.32,707.1 " />
   </g>
</svg>
